<svg width="25" height="24" viewBox="0 0 25 24" fill="none" xmlns="http://www.w3.org/2000/svg">
<path fill-rule="evenodd" clip-rule="evenodd" d="M12.5 0C5.87258 0 0.5 5.37258 0.5 12C0.5 18.6275 5.87258 24 12.5 24C19.1275 24 24.5 18.6275 24.5 12C24.5 5.37258 19.1275 0 12.5 0ZM13.3372 5.30233C13.3372 4.83995 12.9624 4.46512 12.5 4.46512C12.0376 4.46512 11.6628 4.83995 11.6628 5.30233V12C11.6628 12.4624 12.0376 12.8372 12.5 12.8372H19.1977C19.66 12.8372 20.0349 12.4624 20.0349 12C20.0349 11.5376 19.66 11.1628 19.1977 11.1628H13.3372V5.30233Z" fill="#D4EE5D"/>
</svg>
