<svg width="24" height="25" viewBox="0 0 24 25" fill="none" xmlns="http://www.w3.org/2000/svg">
<g id="Frame">
<path id="Vector" fill-rule="evenodd" clip-rule="evenodd" d="M12 1.75C6.06294 1.75 1.25 6.56294 1.25 12.5C1.25 18.4371 6.06294 23.25 12 23.25C17.9371 23.25 22.75 18.4371 22.75 12.5C22.75 6.56294 17.9371 1.75 12 1.75ZM15.75 10C15.75 9.23697 15.5678 8.5837 15.1673 8.06443C14.7698 7.54908 14.2196 7.24662 13.6352 7.06475C13.3606 6.9793 13.0634 6.91656 12.75 6.87066V6C12.75 5.58579 12.4142 5.25 12 5.25C11.5858 5.25 11.25 5.58579 11.25 6V6.75782C10.7764 6.74612 10.291 6.74929 9.81006 6.75243L9.59566 6.75379C8.85407 6.75813 8.25003 7.35975 8.25003 8.10591L8.25 12.5V16.8941C8.25 17.6403 8.85404 18.2419 9.59559 18.2462L9.81003 18.2476C10.2909 18.2507 10.7764 18.2539 11.25 18.2422V19C11.25 19.4142 11.5858 19.75 12 19.75C12.4142 19.75 12.75 19.4142 12.75 19V18.1293C13.0634 18.0834 13.3606 18.0207 13.6352 17.9353C14.2196 17.7534 14.7698 17.4509 15.1673 16.9356C15.5677 16.4163 15.75 15.763 15.75 15C15.75 14.1694 15.5186 13.4776 15.0407 12.949C14.8822 12.7736 14.7049 12.6255 14.5145 12.5C14.7049 12.3745 14.8822 12.2264 15.0407 12.051C15.5186 11.5224 15.75 10.8306 15.75 10ZM12.9426 11.5513C12.393 11.6891 11.7378 11.7357 11.0012 11.7496C10.5848 11.7414 10.1634 11.7435 9.75001 11.7463L9.75003 8.25291C11.2172 8.24444 12.3752 8.2436 13.1895 8.497C13.5843 8.61985 13.8279 8.78395 13.9795 8.98048C14.128 9.17309 14.25 9.47702 14.25 10C14.25 10.5412 14.1064 10.8478 13.928 11.0451C13.7364 11.2571 13.4256 11.4303 12.9426 11.5513ZM11.0012 13.2504C10.5848 13.2586 10.1634 13.2565 9.75 13.2537V16.7471C11.2172 16.7556 12.3752 16.7564 13.1895 16.503C13.5842 16.3802 13.8279 16.2161 13.9795 16.0195C14.128 15.8269 14.25 15.523 14.25 15C14.25 14.4588 14.1064 14.1522 13.928 13.9549C13.7364 13.7429 13.4256 13.5697 12.9426 13.4487C12.393 13.3109 11.7378 13.2643 11.0012 13.2504Z" fill="#F9F8FC"/>
</g>
</svg>
