<svg width="25" height="24" viewBox="0 0 25 24" fill="none" xmlns="http://www.w3.org/2000/svg">
<path fill-rule="evenodd" clip-rule="evenodd" d="M12.5 0C5.87258 0 0.5 5.37258 0.5 12C0.5 18.6273 5.87257 24 12.5 24C19.1273 24 24.5 18.6273 24.5 12C24.5 5.37257 19.1273 0 12.5 0ZM13.3372 4.74419C13.3372 4.28181 12.9624 3.90698 12.5 3.90698C12.0376 3.90698 11.6628 4.28181 11.6628 4.74419V5.97572C11.0877 6.06117 10.5245 6.26002 10.047 6.62169C9.29646 7.19017 8.87209 8.07459 8.87209 9.20931C8.87209 9.76228 9.00077 10.2538 9.25423 10.6784C9.50479 11.0982 9.85036 11.4077 10.2191 11.6423C10.9031 12.0776 11.775 12.3151 12.4952 12.5114L12.5588 12.5287C13.3618 12.7476 13.993 12.9276 14.4401 13.2122C14.6468 13.3438 14.781 13.479 14.8662 13.6217C14.9484 13.7596 15.0116 13.9484 15.0116 14.2326C15.0116 14.9126 14.7378 15.34 14.3372 15.6207C13.9028 15.9248 13.2602 16.0912 12.53 16.0649C11.4117 16.0247 10.3466 15.5474 9.82093 14.8465C9.5435 14.4766 9.01874 14.4017 8.64884 14.6791C8.27894 14.9565 8.20397 15.4812 8.4814 15.8512C9.2288 16.8477 10.4431 17.4419 11.6628 17.6536V19.2558C11.6628 19.7182 12.0376 20.093 12.5 20.093C12.9624 20.093 13.3372 19.7182 13.3372 19.2558V17.7031C14.0379 17.619 14.7231 17.3946 15.2977 16.9921C16.1429 16.4004 16.686 15.4625 16.686 14.2326C16.686 13.6796 16.5573 13.1882 16.3039 12.7635C16.0533 12.3437 15.7077 12.0342 15.339 11.7995C14.6551 11.3643 13.7832 11.1267 13.0629 10.9305L12.9993 10.9132C12.1964 10.6943 11.5651 10.5142 11.118 10.2297C10.9113 10.0981 10.7771 9.9629 10.692 9.82013C10.6097 9.6823 10.5465 9.49354 10.5465 9.20931C10.5465 8.52446 10.7813 8.16604 11.058 7.95645C11.3697 7.72035 11.8569 7.58343 12.4775 7.60013C13.5366 7.62863 14.6671 8.09536 15.2569 8.68502C15.5838 9.01198 16.1138 9.01197 16.4408 8.68502C16.7678 8.35806 16.7678 7.82797 16.4408 7.50103C15.6791 6.73927 14.5079 6.20271 13.3372 6.00656V4.74419Z" fill="#D4EE5D"/>
</svg>
