<svg width="20" height="18" viewBox="0 0 20 18" fill="none" xmlns="http://www.w3.org/2000/svg">
<g id="Group 2">
<path id="Polygon 2" d="M10.1699 17.4573L0.198524 5.47597L4.91553 7.1876L10.1699 17.4573Z" fill="#F23E59"/>
<path id="Polygon 3" d="M10.1699 17.4573L20.0219 5.47597L15.3049 7.13573L10.1699 17.4573Z" fill="#CC1732"/>
<path id="Polygon 4" d="M10.1696 17.4573L15.3045 7.13573L4.85547 7.13573L10.1696 17.4573Z" fill="#E7213F"/>
<path id="Polygon 7" d="M15.3048 7.18763L10.1699 1.89721L16.9767 1.43042L15.3048 7.18763Z" fill="#E7334F"/>
<path id="Polygon 9" d="M4.85653 7.13576L3.3041 1.27473L10.1706 1.89712L4.85653 7.13576Z" fill="#FC4C67"/>
<path id="Polygon 11" d="M10.1691 1.89717L3.30262 1.27476L7.20093 0.791551L12.515 0.791551L16.976 1.43035L10.1691 1.89717Z" fill="#FF647B"/>
<path id="Polygon 8" d="M16.9761 1.43031L19.9556 5.58974L15.3042 7.13572L16.9761 1.43031Z" fill="#D8233E"/>
<path id="Polygon 10" d="M3.30301 1.27474L4.91515 7.18762L0.198141 5.476L3.30301 1.27474Z" fill="#FF6078"/>
<path id="Polygon 6" d="M10.1696 1.89716L15.3045 7.13576H4.85547L10.1696 1.89716Z" fill="#F43754"/>
</g>
</svg>
