<svg width="24" height="29" viewBox="0 0 24 29" fill="none" xmlns="http://www.w3.org/2000/svg">
<g id="sbp-1669939801-logotic-brand 1" clip-path="url(#clip0_1617_14900)">
<path id="Vector" d="M0.625 6.59521L4.01579 12.656V16.353L0.628967 22.4019L0.625 6.59521Z" fill="#5B57A2"/>
<path id="Vector_2" d="M13.6484 10.4495L16.8258 8.50214L23.3283 8.49609L13.6484 14.426V10.4495Z" fill="#D90751"/>
<path id="Vector_3" d="M13.6269 6.55898L13.6448 14.5833L10.2461 12.495V0.5L13.6269 6.55898Z" fill="#FAB718"/>
<path id="Vector_4" d="M23.3246 8.49658L16.8219 8.50262L13.6269 6.55898L10.2461 0.5L23.3246 8.49658Z" fill="#ED6F26"/>
<path id="Vector_5" d="M13.6448 22.4355V18.5423L10.2461 16.4937L10.2479 28.5005L13.6448 22.4355Z" fill="#63B22F"/>
<path id="Vector_6" d="M16.8136 20.5058L4.01556 12.656L0.625 6.59521L23.3103 20.4979L16.8136 20.5058Z" fill="#1487C9"/>
<path id="Vector_7" d="M10.2461 28.5002L13.6425 22.4352L16.8119 20.5055L23.3085 20.4976L10.2461 28.5002Z" fill="#017F36"/>
<path id="Vector_8" d="M0.632812 22.4013L10.2772 16.4933L7.03478 14.5039L4.01964 16.3524L0.632812 22.4013Z" fill="#984995"/>
</g>
<defs>
<clipPath id="clip0_1617_14900">
<rect width="22.75" height="28" fill="white" transform="translate(0.625 0.5)"/>
</clipPath>
</defs>
</svg>
