<svg width="25" height="24" viewBox="0 0 25 24" fill="none" xmlns="http://www.w3.org/2000/svg">
<rect width="25" height="24" fill="#1E1E1E"/>
<g id="Icons">
<path d="M-60 -69C-60 -70.1046 -59.1046 -71 -58 -71H410C411.105 -71 412 -70.1046 412 -69V192C412 193.105 411.105 194 410 194H-58C-59.1046 194 -60 193.105 -60 192V-69Z" fill="#343D33"/>
<path d="M-58 -70H410V-72H-58V-70ZM411 -69V192H413V-69H411ZM410 193H-58V195H410V193ZM-59 192V-69H-61V192H-59ZM-58 193C-58.5523 193 -59 192.552 -59 192H-61C-61 193.657 -59.6568 195 -58 195V193ZM411 192C411 192.552 410.552 193 410 193V195C411.657 195 413 193.657 413 192H411ZM410 -70C410.552 -70 411 -69.5523 411 -69H413C413 -70.6569 411.657 -72 410 -72V-70ZM-58 -72C-59.6568 -72 -61 -70.6569 -61 -69H-59C-59 -69.5523 -58.5523 -70 -58 -70V-72Z" fill="white" fill-opacity="0.1"/>
<g id="Vk">
<path id="Vector" d="M13.3708 18.072C6.70844 18.072 2.90835 13.5045 2.75 5.9043H6.0873C6.19691 11.4827 8.6572 13.8456 10.606 14.3328V5.9043H13.7485V10.7153C15.6729 10.5083 17.6945 8.31591 18.3766 5.9043H21.5191C20.9953 8.8762 18.803 11.0685 17.244 11.9698C18.803 12.7006 21.3 14.6129 22.25 18.072H18.7908C18.0478 15.7578 16.1966 13.9674 13.7485 13.7237V18.072H13.3708Z" fill="#B2ACBF"/>
</g>
</g>
</svg>
